<?xml version="1.0" encoding="UTF-8" standalone="no"?>
<svg
   viewBox="0 0 24 24"
   version="1.1"
   id="svg17"
   sodipodi:docname="galka.svg"
   inkscape:version="1.1.1 (3bf5ae0d25, 2021-09-20)"
   xmlns:inkscape="http://www.inkscape.org/namespaces/inkscape"
   xmlns:sodipodi="http://sodipodi.sourceforge.net/DTD/sodipodi-0.dtd"
   xmlns="http://www.w3.org/2000/svg"
   xmlns:svg="http://www.w3.org/2000/svg"
   xmlns:rdf="http://www.w3.org/1999/02/22-rdf-syntax-ns#"
   xmlns:cc="http://creativecommons.org/ns#"
   xmlns:dc="http://purl.org/dc/elements/1.1/">
  <sodipodi:namedview
     id="namedview19"
     pagecolor="#505050"
     bordercolor="#eeeeee"
     borderopacity="1"
     inkscape:pageshadow="0"
     inkscape:pageopacity="0"
     inkscape:pagecheckerboard="0"
     showgrid="false"
     inkscape:zoom="35.75"
     inkscape:cx="12.013986"
     inkscape:cy="12"
     inkscape:window-width="1284"
     inkscape:window-height="1040"
     inkscape:window-x="432"
     inkscape:window-y="55"
     inkscape:window-maximized="0"
     inkscape:current-layer="svg17" />
  <defs
     id="defs4">
    <style
       id="style2">.cls-1{fill:#fff;opacity:0;}.cls-2{fill:#fff;}</style>
  </defs>
  <title
     id="title6">checkmark-circle</title>
  <g
     id="Layer_2"
     data-name="Layer 2">
    <g
       id="checkmark-circle">
      <g
         id="checkmark-circle-2"
         data-name="checkmark-circle">
        <rect
           class="cls-1"
           width="24"
           height="24"
           id="rect8" />
        <path
           class="cls-2"
           d="M9.71,11.29a1,1,0,0,0-1.42,1.42l3,3A1,1,0,0,0,12,16h0a1,1,0,0,0,.72-.34l7-8a1,1,0,0,0-1.5-1.32L12,13.54Z"
           id="path10" />
        <path
           class="cls-2"
           d="M21,11h0a1,1,0,0,0-1,1,8,8,0,0,1-8,8h0A8,8,0,0,1,6.33,6.36,7.93,7.93,0,0,1,12,4a8.79,8.79,0,0,1,1.9.22,1,1,0,1,0,.47-1.94A10.54,10.54,0,0,0,12,2,10,10,0,0,0,5,19.09,9.93,9.93,0,0,0,12,22h0A10,10,0,0,0,22,12,1,1,0,0,0,21,11Z"
           id="path12" />
      </g>
    </g>
  </g>
  <metadata
     id="metadata836">
    <rdf:RDF>
      <cc:Work
         rdf:about="">
        <dc:title>checkmark-circle</dc:title>
      </cc:Work>
    </rdf:RDF>
  </metadata>
</svg>
